<?xml version="1.0" encoding="utf-8"?>
<!-- Generator: Adobe Illustrator 18.0.0, SVG Export Plug-In . SVG Version: 6.00 Build 0)  -->
<!DOCTYPE svg PUBLIC "-//W3C//DTD SVG 1.1//EN" "http://www.w3.org/Graphics/SVG/1.1/DTD/svg11.dtd">
<svg version="1.1" id="Layer_2" xmlns="http://www.w3.org/2000/svg" xmlns:xlink="http://www.w3.org/1999/xlink" x="0px" y="0px"
	 viewBox="0 0 56.9 81.2" enable-background="new 0 0 56.9 81.2" xml:space="preserve">
<circle fill="none" stroke="#FFFFFF" stroke-miterlimit="10" cx="28.7" cy="28.8" r="24.6"/>
<circle fill="none" stroke="#FFFFFF" stroke-miterlimit="10" cx="28.7" cy="28.8" r="7.5"/>
<rect x="1.6" y="1" fill="none" stroke="#FFFFFF" stroke-miterlimit="10" width="53.8" height="79.1"/>
<circle fill="none" stroke="#FFFFFF" stroke-miterlimit="10" cx="28.5" cy="28.6" r="2.8"/>
<circle fill="none" stroke="#FFFFFF" stroke-miterlimit="10" cx="31.2" cy="24.5" r="1"/>
<circle fill="none" stroke="#FFFFFF" stroke-miterlimit="10" cx="25.8" cy="33.2" r="1"/>
<circle fill="none" stroke="#FFFFFF" stroke-miterlimit="10" cx="32.2" cy="31.9" r="1"/>
<circle fill="none" stroke="#FFFFFF" stroke-miterlimit="10" cx="24.8" cy="24.9" r="1"/>
<path fill="none" stroke="#FFFFFF" stroke-miterlimit="10" d="M32.2,65.5l2.6-2.9h9.5c0,0,2.1,1,0,4.2s-3.6,5.5-3.6,5.5L32.2,73
	c0,0-2,0.2-1-3.6S32.2,65.5,32.2,65.5z"/>
<path fill="none" stroke="#FFFFFF" stroke-miterlimit="10" d="M4,50.8h6.3l1.2,1.9l2.6,1.9v0.7v4.9l4,4.5h10.4V73H17.9
	c0,0-8.9-1.3-10.1-7.9S6,57.4,6,57.4l-2-1.2V50.8z"/>
<polyline fill="none" stroke="#FFFFFF" stroke-miterlimit="10" points="16.3,55.5 39.8,40.6 32.2,51.2 22,64.6 "/>
<line fill="none" stroke="#FFFFFF" stroke-miterlimit="10" x1="14.2" y1="55.8" x2="16.9" y2="55.1"/>
<circle fill="none" stroke="#FFFFFF" stroke-miterlimit="10" cx="21" cy="58.5" r="2.8"/>
</svg>
