<?xml version="1.0" encoding="utf-8"?>
<!-- Generator: Adobe Illustrator 18.0.0, SVG Export Plug-In . SVG Version: 6.00 Build 0)  -->
<!DOCTYPE svg PUBLIC "-//W3C//DTD SVG 1.1//EN" "http://www.w3.org/Graphics/SVG/1.1/DTD/svg11.dtd">
<svg version="1.1" id="Layer_1" xmlns="http://www.w3.org/2000/svg" xmlns:xlink="http://www.w3.org/1999/xlink" x="0px" y="0px"
	 viewBox="0 0 100 100" enable-background="new 0 0 100 100" xml:space="preserve">
<g id="Layer_1_1_" display="none">
	
		<image display="inline" overflow="visible" enable-background="new    " width="202" height="218" xlink:href="7F4E31C40E5FCB47.png"  transform="matrix(0.4348 0 0 0.4348 6.087 2.6087)">
	</image>
	
		<line display="inline" fill="none" stroke="#70bce2" stroke-width="1.5" stroke-miterlimit="10" x1="58.3" y1="9.6" x2="60" y2="9.6"/>
	
		<line display="inline" fill="none" stroke="#70bce2" stroke-width="1.5" stroke-miterlimit="10" x1="58.3" y1="12.2" x2="60" y2="12.2"/>
	<path display="inline" fill="none" stroke="#70bce2" stroke-miterlimit="10" d="M58.3,14.9"/>
	
		<line display="inline" fill="none" stroke="#70bce2" stroke-width="1.5" stroke-miterlimit="10" x1="60" y1="14.9" x2="58.3" y2="14.9"/>
	
		<line display="inline" fill="none" stroke="#70bce2" stroke-width="1.5" stroke-miterlimit="10" x1="58.3" y1="17.4" x2="60" y2="17.4"/>
	
		<line display="inline" fill="none" stroke="#70bce2" stroke-width="1.5" stroke-miterlimit="10" x1="58.3" y1="20" x2="60" y2="20"/>
	
		<line display="inline" fill="none" stroke="#70bce2" stroke-width="1.5" stroke-miterlimit="10" x1="60" y1="22.7" x2="58.3" y2="22.7"/>
	
		<line display="inline" fill="none" stroke="#70bce2" stroke-width="1.5" stroke-miterlimit="10" x1="58.3" y1="25.3" x2="60" y2="25.3"/>
	
		<line display="inline" fill="none" stroke="#70bce2" stroke-width="1.5" stroke-miterlimit="10" x1="58.3" y1="27.9" x2="60" y2="27.9"/>
	
		<line display="inline" fill="none" stroke="#70bce2" stroke-width="1.5" stroke-miterlimit="10" x1="60" y1="30.6" x2="58.3" y2="30.6"/>
	
		<line display="inline" fill="none" stroke="#70bce2" stroke-width="1.5" stroke-miterlimit="10" x1="58.3" y1="33.1" x2="60" y2="33.1"/>
	
		<line display="inline" fill="none" stroke="#70bce2" stroke-width="1.5" stroke-miterlimit="10" x1="58.3" y1="35.7" x2="60" y2="35.7"/>
	
		<line display="inline" fill="none" stroke="#70bce2" stroke-width="1.5" stroke-miterlimit="10" x1="60" y1="38.4" x2="58.3" y2="38.4"/>
	
		<line display="inline" fill="none" stroke="#70bce2" stroke-width="1.5" stroke-miterlimit="10" x1="58.3" y1="40.9" x2="60" y2="40.9"/>
	
		<line display="inline" fill="none" stroke="#70bce2" stroke-width="1.5" stroke-miterlimit="10" x1="58.3" y1="43.5" x2="60" y2="43.5"/>
	
		<line display="inline" fill="none" stroke="#70bce2" stroke-width="1.5" stroke-miterlimit="10" x1="60" y1="46.2" x2="58.3" y2="46.2"/>
	
		<line display="inline" fill="none" stroke="#70bce2" stroke-width="1.5" stroke-miterlimit="10" x1="58.3" y1="48.7" x2="60" y2="48.7"/>
	
		<line display="inline" fill="none" stroke="#70bce2" stroke-width="1.5" stroke-miterlimit="10" x1="58.3" y1="51.3" x2="60" y2="51.3"/>
	
		<line display="inline" fill="none" stroke="#70bce2" stroke-width="1.5" stroke-miterlimit="10" x1="60" y1="54" x2="58.3" y2="54"/>
	
		<line display="inline" fill="none" stroke="#70bce2" stroke-width="1.5" stroke-miterlimit="10" x1="58.3" y1="46.1" x2="60" y2="46.1"/>
	
		<line display="inline" fill="none" stroke="#70bce2" stroke-width="1.5" stroke-miterlimit="10" x1="58.3" y1="48.7" x2="60" y2="48.7"/>
	
		<line display="inline" fill="none" stroke="#70bce2" stroke-width="1.5" stroke-miterlimit="10" x1="60" y1="51.4" x2="58.3" y2="51.4"/>
	
		<line display="inline" fill="none" stroke="#70bce2" stroke-width="1.5" stroke-miterlimit="10" x1="58.3" y1="53.9" x2="60" y2="53.9"/>
	
		<line display="inline" fill="none" stroke="#70bce2" stroke-width="1.5" stroke-miterlimit="10" x1="58.3" y1="64.4" x2="60" y2="64.4"/>
	
		<line display="inline" fill="none" stroke="#70bce2" stroke-width="1.5" stroke-miterlimit="10" x1="60" y1="67.1" x2="58.3" y2="67.1"/>
	
		<line display="inline" fill="none" stroke="#70bce2" stroke-width="1.5" stroke-miterlimit="10" x1="58.3" y1="69.7" x2="60" y2="69.7"/>
	
		<line display="inline" fill="none" stroke="#70bce2" stroke-width="1.5" stroke-miterlimit="10" x1="58.3" y1="72.3" x2="60" y2="72.3"/>
	
		<line display="inline" fill="none" stroke="#70bce2" stroke-width="1.5" stroke-miterlimit="10" x1="60" y1="74.9" x2="58.3" y2="74.9"/>
	
		<line display="inline" fill="none" stroke="#70bce2" stroke-width="1.5" stroke-miterlimit="10" x1="58.3" y1="77.4" x2="60" y2="77.4"/>
	
		<line display="inline" fill="none" stroke="#70bce2" stroke-width="1.5" stroke-miterlimit="10" x1="58.3" y1="80" x2="60" y2="80"/>
	
		<line display="inline" fill="none" stroke="#70bce2" stroke-width="1.5" stroke-miterlimit="10" x1="60" y1="82.7" x2="58.3" y2="82.7"/>
	
		<line display="inline" fill="none" stroke="#70bce2" stroke-width="1.5" stroke-miterlimit="10" x1="58.3" y1="85.2" x2="60" y2="85.2"/>
	
		<line display="inline" fill="none" stroke="#70bce2" stroke-width="1.5" stroke-miterlimit="10" x1="58.3" y1="87.8" x2="60" y2="87.8"/>
	
		<line display="inline" fill="none" stroke="#70bce2" stroke-width="1.5" stroke-miterlimit="10" x1="60" y1="90.5" x2="58.3" y2="90.5"/>
</g>
<g id="Layer_2">
</g>
<g id="Layer_3">
	<g>
		<g>
			<path fill="none" stroke="#70bce2" stroke-miterlimit="10" d="M59.5,36.7h33.3c0,0,1.7,0.4,1.7,2.6s0,5.2,0,5.2s-1.7,0.7-1.7,1.7
				c0,1.1,0.7,1.7,1.7,2v3c0,0-1.7,0.7-1.7,1.7c0,0,0,1.5,1.5,1.7c0.2,3.4,0,4,0,4s0.1,1-2,1.1c-2,0-51.3,0-51.3,0v-4
				c0,0-0.7-0.7-2-0.7s-2,0.8-2,2s0,2.3,0,2.3v0.4H2.7c0,0-1.3,0.2-1.3-1.7s0-3.7,0-3.7s2.1,0.2,2.1-1.3s-1.7-1.7-1.7-1.7v-3.9
				c0,0,1.8,0.4,1.8-1s-1.7-1.6-1.7-1.6l-0.2-7c0,0,0.3-1.3,1.7-1.3C4.5,36.7,59.5,36.7,59.5,36.7z"/>
			<path fill="none" stroke="#70bce2" stroke-miterlimit="10" d="M88.6,56.5"/>
		</g>
		<line fill="none" stroke="#70bce2" stroke-miterlimit="10" x1="88.6" y1="40.8" x2="88.6" y2="52"/>
		<rect x="75.5" y="40.8" fill="none" stroke="#70bce2" stroke-miterlimit="10" width="10.5" height="11.2"/>
		<line fill="none" stroke="#70bce2" stroke-miterlimit="10" x1="72.8" y1="40.8" x2="72.8" y2="52"/>
		<line fill="none" stroke="#70bce2" stroke-miterlimit="10" x1="57.3" y1="40.8" x2="57.3" y2="52"/>
		<line fill="none" stroke="#70bce2" stroke-miterlimit="10" x1="41.6" y1="41" x2="41.6" y2="52.2"/>
		<line fill="none" stroke="#70bce2" stroke-miterlimit="10" x1="39.1" y1="41" x2="39.1" y2="52.2"/>
		<line fill="none" stroke="#70bce2" stroke-miterlimit="10" x1="23.2" y1="41" x2="23.2" y2="52.2"/>
		<line fill="none" stroke="#70bce2" stroke-miterlimit="10" x1="7.6" y1="40.8" x2="7.6" y2="52"/>
		<polyline fill="none" stroke="#70bce2" stroke-miterlimit="10" points="78.2,40.8 78.2,52 80.8,52 80.7,40.8 83.3,40.8 83.3,52 
			86,52 86,49 75.5,49 75.5,46.4 86,46.4 86,43.7 75.5,43.8 		"/>
		<rect x="59.8" y="40.8" fill="none" stroke="#70bce2" stroke-miterlimit="10" width="10.5" height="11.2"/>
		<polyline fill="none" stroke="#70bce2" stroke-miterlimit="10" points="62.5,40.8 62.5,52 65.1,52 65,40.8 67.6,40.8 67.6,52 
			70.3,52 70.3,49 59.8,49 59.8,46.4 70.3,46.4 70.3,43.7 59.8,43.8 		"/>
		<rect x="44.2" y="40.8" fill="none" stroke="#70bce2" stroke-miterlimit="10" width="10.5" height="11.2"/>
		<polyline fill="none" stroke="#70bce2" stroke-miterlimit="10" points="46.9,40.8 46.9,52 49.5,52 49.5,40.8 52.1,40.8 52.1,52 
			54.8,52 54.8,49 44.2,49 44.2,46.4 54.8,46.4 54.8,43.7 44.2,43.8 		"/>
		<rect x="25.8" y="40.8" fill="none" stroke="#70bce2" stroke-miterlimit="10" width="10.5" height="11.2"/>
		<polyline fill="none" stroke="#70bce2" stroke-miterlimit="10" points="28.5,40.8 28.5,52 31.1,52 31.1,40.8 33.6,40.8 33.6,52 
			36.3,52 36.3,49 25.8,49 25.8,46.4 36.3,46.4 36.3,43.7 25.8,43.8 		"/>
		<rect x="10.2" y="40.8" fill="none" stroke="#70bce2" stroke-miterlimit="10" width="10.5" height="11.2"/>
		<polyline fill="none" stroke="#70bce2" stroke-miterlimit="10" points="12.9,40.8 12.9,52 15.5,52 15.5,40.8 18.1,40.8 18.1,52 
			20.7,52 20.7,49 10.2,49 10.2,46.4 20.7,46.4 20.7,43.7 10.2,43.8 		"/>
	</g>
</g>
</svg>
