<?xml version="1.0" encoding="utf-8"?>
<!-- Generator: Adobe Illustrator 18.0.0, SVG Export Plug-In . SVG Version: 6.00 Build 0)  -->
<!DOCTYPE svg PUBLIC "-//W3C//DTD SVG 1.1//EN" "http://www.w3.org/Graphics/SVG/1.1/DTD/svg11.dtd">
<svg version="1.1" xmlns="http://www.w3.org/2000/svg" xmlns:xlink="http://www.w3.org/1999/xlink" x="0px" y="0px"
	 viewBox="0 0 130 100" enable-background="new 0 0 130 100" xml:space="preserve">
<g id="Layer_2">
	<polygon fill="none" stroke="#70bce2" stroke-miterlimit="10" points="20.5,82.8 20.5,77 32.5,77 32.5,82.8 38,82.8 38,77 40.8,77 
		40.8,86 48.5,86 48.5,80.2 50,80.2 50,86 98.8,86 98.8,80 100.5,80 100.5,83.8 108.8,83.8 109.8,81.5 109.8,80 106.2,79.8 
		106.2,77 124.5,77 124.5,10.5 13.5,10.5 13.5,16.2 11,16.2 11,14.8 9.2,13.2 2,13 5,17 8.5,17.2 8.5,28.2 6.2,28.2 6.2,31 
		7.8,31.8 8,33 5.8,32.8 5.8,48.2 7.8,48.2 8.2,50 5.8,50 5.2,53 7.5,53.2 7.5,58.8 5,58.8 5,61 7.8,61 7.8,63 5,63 5,73 7.5,73 
		6.8,75.5 5.5,75.5 4.2,77.5 5.2,78.8 6.8,78.8 6.8,86 7,89.2 6.8,95 9.8,95 10,89.5 10,82.8 	"/>
	<circle fill="none" stroke="#70bce2" stroke-miterlimit="10" cx="82.3" cy="49.1" r="24.1"/>
	<circle fill="none" stroke="#70bce2" stroke-miterlimit="10" cx="31.3" cy="20.4" r="2.6"/>
	<circle fill="none" stroke="#70bce2" stroke-miterlimit="10" cx="31.3" cy="26.8" r="2.6"/>
	<circle fill="none" stroke="#70bce2" stroke-miterlimit="10" cx="48.2" cy="20.5" r="2.7"/>
	<circle fill="none" stroke="#70bce2" stroke-miterlimit="10" cx="46.8" cy="35.6" r="2.9"/>
	<circle fill="none" stroke="#70bce2" stroke-miterlimit="10" cx="42.2" cy="44.9" r="3.4"/>
	<circle fill="none" stroke="#70bce2" stroke-miterlimit="10" cx="42.2" cy="54.6" r="3.4"/>
	<circle fill="none" stroke="#70bce2" stroke-miterlimit="10" cx="42.3" cy="64.9" r="3.6"/>
	<circle fill="none" stroke="#70bce2" stroke-miterlimit="10" cx="26.8" cy="59.4" r="2.8"/>
	<circle fill="none" stroke="#70bce2" stroke-miterlimit="10" cx="27.2" cy="67.4" r="3.1"/>
	<circle fill="none" stroke="#70bce2" stroke-miterlimit="10" cx="104.2" cy="23.5" r="3.1"/>
	<line fill="none" stroke="#70bce2" stroke-miterlimit="10" x1="54.9" y1="16" x2="99.6" y2="16"/>
	<line fill="none" stroke="#70bce2" stroke-miterlimit="10" x1="54.9" y1="18.7" x2="99.6" y2="18.7"/>
	<line fill="none" stroke="#70bce2" stroke-miterlimit="10" x1="54.9" y1="20.4" x2="99.6" y2="20.4"/>
	<line fill="none" stroke="#70bce2" stroke-miterlimit="10" x1="54.9" y1="22.2" x2="99.6" y2="22.2"/>
</g>
<g id="Layer_3">
	<line fill="#70bce2" stroke="#70bce2" stroke-miterlimit="10" x1="54.2" y1="55.7" x2="59.1" y2="55.7"/>
	<line fill="#70bce2" stroke="#70bce2" stroke-miterlimit="10" x1="54.2" y1="58" x2="59.9" y2="58"/>
	<line fill="#70bce2" stroke="#70bce2" stroke-miterlimit="10" x1="54.2" y1="61.3" x2="61.5" y2="61.3"/>
	<line fill="#70bce2" stroke="#70bce2" stroke-miterlimit="10" x1="54.2" y1="63.2" x2="62.7" y2="63.2"/>
	<line fill="#70bce2" stroke="#70bce2" stroke-miterlimit="10" x1="54.2" y1="65.7" x2="64.8" y2="65.7"/>
	<line fill="#70bce2" stroke="#70bce2" stroke-miterlimit="10" x1="54.2" y1="67.4" x2="66.6" y2="67.4"/>
	<line fill="#70bce2" stroke="#70bce2" stroke-miterlimit="10" x1="54.2" y1="69.7" x2="69.7" y2="69.7"/>
	<path fill="#70bce2" stroke="#70bce2" stroke-miterlimit="10" d="M53.6,44.9"/>
	<line fill="#70bce2" stroke="#70bce2" stroke-miterlimit="10" x1="54.2" y1="38.5" x2="60.6" y2="38.5"/>
	<line fill="#70bce2" stroke="#70bce2" stroke-miterlimit="10" x1="54.2" y1="40.8" x2="59.6" y2="40.8"/>
	<line fill="#70bce2" stroke="#70bce2" stroke-miterlimit="10" x1="54.9" y1="43" x2="59" y2="43"/>
	<line fill="#70bce2" stroke="#70bce2" stroke-miterlimit="10" x1="54.9" y1="44.9" x2="59" y2="44.9"/>
	<line fill="#70bce2" stroke="#70bce2" stroke-miterlimit="10" x1="54.2" y1="47" x2="58.3" y2="47"/>
	<line fill="#70bce2" stroke="#70bce2" stroke-miterlimit="10" x1="54.9" y1="49.1" x2="58.2" y2="49.1"/>
	<line fill="#70bce2" stroke="#70bce2" stroke-miterlimit="10" x1="54.9" y1="51.2" x2="58.3" y2="51.2"/>
	<line fill="#70bce2" stroke="#70bce2" stroke-miterlimit="10" x1="104.2" y1="39.1" x2="112.9" y2="39.1"/>
	<line fill="#70bce2" stroke="#70bce2" stroke-miterlimit="10" x1="104.9" y1="40.8" x2="112.9" y2="40.8"/>
	<line fill="#70bce2" stroke="#70bce2" stroke-miterlimit="10" x1="105.6" y1="43" x2="112.9" y2="43"/>
	<line fill="#70bce2" stroke="#70bce2" stroke-miterlimit="10" x1="106.3" y1="44.9" x2="112.9" y2="44.9"/>
	<line fill="#70bce2" stroke="#70bce2" stroke-miterlimit="10" x1="106.3" y1="47.7" x2="112.9" y2="47.7"/>
	<line fill="#70bce2" stroke="#70bce2" stroke-miterlimit="10" x1="106.3" y1="50" x2="112.9" y2="50"/>
	<line fill="#70bce2" stroke="#70bce2" stroke-miterlimit="10" x1="106.2" y1="51.8" x2="112.9" y2="51.8"/>
	<line fill="#70bce2" stroke="#70bce2" stroke-miterlimit="10" x1="105.1" y1="56.7" x2="113.8" y2="56.7"/>
	<line fill="#70bce2" stroke="#70bce2" stroke-miterlimit="10" x1="104" y1="59.4" x2="113.8" y2="59.4"/>
	<line fill="#70bce2" stroke="#70bce2" stroke-miterlimit="10" x1="103" y1="61.3" x2="113.8" y2="61.3"/>
	<line fill="#70bce2" stroke="#70bce2" stroke-miterlimit="10" x1="101.1" y1="64.1" x2="113.8" y2="64.1"/>
	<line fill="#70bce2" stroke="#70bce2" stroke-miterlimit="10" x1="99.6" y1="65.8" x2="113.8" y2="65.8"/>
	<line fill="#70bce2" stroke="#70bce2" stroke-miterlimit="10" x1="96.5" y1="68.5" x2="113.8" y2="68.5"/>
	<line fill="#70bce2" stroke="#70bce2" stroke-miterlimit="10" x1="50" y1="82.5" x2="98.8" y2="82.5"/>
	<line fill="#70bce2" stroke="#70bce2" stroke-miterlimit="10" x1="100.5" y1="80.7" x2="109.8" y2="80.7"/>
	<line fill="#70bce2" stroke="#70bce2" stroke-miterlimit="10" x1="40.8" y1="82.5" x2="48.2" y2="82.5"/>
	<line fill="#70bce2" stroke="#70bce2" stroke-miterlimit="10" x1="32.5" y1="80.7" x2="38" y2="80.7"/>
	<polyline fill="none" stroke="#70bce2" stroke-miterlimit="10" points="10.8,27.8 14.6,28.7 14.6,30.2 16.1,30.2 16.1,32.7 
		17.8,32 17.8,49.1 15.6,49.1 15.8,52.8 13.2,52.8 13.2,53.8 10.8,53.8 	"/>
	<polyline fill="none" stroke="#70bce2" stroke-miterlimit="10" points="10.8,17.8 17.8,17.8 20.2,18.7 20.2,26.8 20.2,27.8 
		17.8,26.6 10.8,26.6 	"/>
	<polyline fill="none" stroke="#70bce2" stroke-miterlimit="10" points="9.9,58 21.4,58 20.5,77 	"/>
	<polyline fill="none" stroke="#70bce2" stroke-miterlimit="10" points="21.4,77 20.5,77 20.5,79.7 9.1,79.7 	"/>
	<path fill="none" stroke="#70bce2" stroke-miterlimit="10" d="M79.2,30.2"/>
	<g>
		<path fill="none" stroke="#70bce2" stroke-miterlimit="10" d="M78.9,30.7c0.5,0.8,3.8,5,4.5,8.3c2.8,0.8,3.7,1.4,3.7,1.4v-1.8
			c0,0-1-5.2-2.5-6.5S78.9,30.7,78.9,30.7z"/>
		<path fill="none" stroke="#70bce2" stroke-miterlimit="10" d="M90.5,32.5c-0.2,1-0.4,6.3-2.1,9.2c1.6,2.5,1.8,3.5,1.8,3.5l1.2-1.3
			c0,0,2.6-4.6,2.4-6.5S90.5,32.5,90.5,32.5z"/>
		<path fill="none" stroke="#70bce2" stroke-miterlimit="10" d="M98.1,42.4c-0.8,0.6-4.4,4.5-7.6,5.6c-0.4,2.9-0.9,3.8-0.9,3.8
			l1.8-0.2c0,0,5-1.7,6.1-3.4C98.5,46.6,98.1,42.4,98.1,42.4z"/>
		<path fill="none" stroke="#70bce2" stroke-miterlimit="10" d="M98.4,54.3c-1,0-6.3,0.5-9.4-0.8c-2.2,1.9-3.2,2.3-3.2,2.3l1.5,1
			c0,0,4.9,2,6.8,1.4C96,57.7,98.4,54.3,98.4,54.3z"/>
		<path fill="none" stroke="#70bce2" stroke-miterlimit="10" d="M91,64.1c-0.7-0.7-5.1-3.7-6.6-6.8c-3,0-3.9-0.4-3.9-0.4l0.5,1.7
			c0,0,2.4,4.7,4.2,5.6C87,65.1,91,64.1,91,64.1z"/>
		<path fill="none" stroke="#70bce2" stroke-miterlimit="10" d="M79.3,65.5c-0.1-1-1.4-6.2-0.6-9.5c-2.2-2-2.7-2.9-2.7-2.9l-0.8,1.6
			c0,0-1.3,5.1-0.5,6.9C75.6,63.6,79.3,65.5,79.3,65.5z"/>
		<path fill="none" stroke="#70bce2" stroke-miterlimit="10" d="M68.7,58.9c0.6-0.8,3-5.5,5.8-7.5c-0.4-2.9-0.2-3.9-0.2-3.9
			l-1.6,0.7c0,0-4.3,3-4.9,4.9C67.2,55.1,68.7,58.9,68.7,58.9z"/>
		<path fill="none" stroke="#70bce2" stroke-miterlimit="10" d="M65.2,47.2c0.9-0.2,5.9-2.2,9.3-1.9c1.6-2.5,2.5-3.1,2.5-3.1
			l-1.7-0.5c0,0-5.2-0.6-6.9,0.5S65.2,47.2,65.2,47.2z"/>
		<path fill="none" stroke="#70bce2" stroke-miterlimit="10" d="M69.8,35.5c0.9,0.4,5.9,2.2,8.2,4.7c2.8-0.8,3.9-0.7,3.9-0.7
			L81,37.9c0,0-3.6-3.9-5.6-4.2C73.5,33.4,69.8,35.5,69.8,35.5z"/>
	</g>
	<circle fill="none" stroke="#70bce2" stroke-miterlimit="10" cx="82.3" cy="49.1" r="21.5"/>
	<polyline fill="none" stroke="#70bce2" stroke-miterlimit="10" points="99.7,32.5 99.6,16 54.9,16 54.9,74.5 112.9,74.5 
		112.9,36.9 103.8,36.9 103,36.9 	"/>
	<line fill="none" stroke="#70bce2" stroke-miterlimit="10" x1="9.9" y1="82.7" x2="10.8" y2="14.5"/>
	<line fill="none" stroke="#70bce2" stroke-miterlimit="10" x1="9.1" y1="13.2" x2="6.9" y2="95"/>
	<rect x="27.9" y="30.7" fill="none" stroke="#70bce2" stroke-miterlimit="10" width="6" height="4.9"/>
	<rect x="27.9" y="47" fill="none" stroke="#70bce2" stroke-miterlimit="10" width="3.4" height="6.6"/>
	<rect x="27.9" y="38.5" fill="none" stroke="#70bce2" stroke-miterlimit="10" width="6" height="4.5"/>
	<rect x="38.8" y="17.8" fill="none" stroke="#70bce2" stroke-miterlimit="10" width="3.4" height="1.7"/>
	<rect x="40.8" y="25" fill="none" stroke="#70bce2" stroke-miterlimit="10" width="2.3" height="4.3"/>
	<rect x="28.8" y="14.5" fill="none" stroke="#70bce2" stroke-miterlimit="10" width="5.8" height="3.3"/>
	<rect x="114.9" y="16.2" fill="none" stroke="#70bce2" stroke-miterlimit="10" width="4.7" height="6"/>
	<rect x="116.1" y="25" fill="none" stroke="#70bce2" stroke-miterlimit="10" width="3.5" height="1.7"/>
	<rect x="116.1" y="30.7" fill="none" stroke="#70bce2" stroke-miterlimit="10" width="3.5" height="1.8"/>
</g>
</svg>
