<?xml version="1.0" encoding="utf-8"?>
<!-- Generator: Adobe Illustrator 18.0.0, SVG Export Plug-In . SVG Version: 6.00 Build 0)  -->
<!DOCTYPE svg PUBLIC "-//W3C//DTD SVG 1.1//EN" "http://www.w3.org/Graphics/SVG/1.1/DTD/svg11.dtd">
<svg version="1.1" id="Layer_1" xmlns="http://www.w3.org/2000/svg" xmlns:xlink="http://www.w3.org/1999/xlink" x="0px" y="0px"
	 viewBox="0 0 100 100" enable-background="new 0 0 100 100" xml:space="preserve">
<polygon fill="none" stroke="#70bce2" stroke-miterlimit="10" points="23,21.5 76.2,21.5 79,21.5 79,78.5 20.1,78.5 20.1,21.5 "/>
<polygon fill="none" stroke="#70bce2" stroke-miterlimit="10" points="23.2,24.2 75.5,24.2 75.5,75.6 63.1,75.6 62,72.6 36.5,72.6 
	34.4,75.6 23.2,75.6 "/>
<polygon fill="none" stroke="#70bce2" stroke-miterlimit="10" points="25.8,26.9 71.9,26.9 71.9,71.4 71.9,72 61.2,72 25.8,72 "/>
<line fill="none" stroke="#70bce2" stroke-miterlimit="10" x1="29.5" y1="30.4" x2="29.5" y2="69.6"/>
<line fill="none" stroke="#70bce2" stroke-miterlimit="10" x1="32.5" y1="30.4" x2="32.5" y2="69.7"/>
<line fill="none" stroke="#70bce2" stroke-miterlimit="10" x1="35.5" y1="30.3" x2="35.5" y2="69.6"/>
<line fill="none" stroke="#70bce2" stroke-miterlimit="10" x1="38.4" y1="30.3" x2="38.4" y2="69.6"/>
<line fill="none" stroke="#70bce2" stroke-miterlimit="10" x1="41.6" y1="30.4" x2="41.6" y2="69.6"/>
<line fill="none" stroke="#70bce2" stroke-miterlimit="10" x1="44.4" y1="30.4" x2="44.4" y2="69.7"/>
<line fill="none" stroke="#70bce2" stroke-miterlimit="10" x1="47.4" y1="30.4" x2="47.4" y2="69.7"/>
<line fill="none" stroke="#70bce2" stroke-miterlimit="10" x1="50.4" y1="30.3" x2="50.4" y2="69.6"/>
<line fill="none" stroke="#70bce2" stroke-miterlimit="10" x1="53.6" y1="30.4" x2="53.6" y2="69.6"/>
<line fill="none" stroke="#70bce2" stroke-miterlimit="10" x1="56.5" y1="30.4" x2="56.5" y2="69.7"/>
<line fill="none" stroke="#70bce2" stroke-miterlimit="10" x1="59.5" y1="30.4" x2="59.5" y2="69.7"/>
<line fill="none" stroke="#70bce2" stroke-miterlimit="10" x1="62.4" y1="30.3" x2="62.4" y2="69.6"/>
<line fill="none" stroke="#70bce2" stroke-miterlimit="10" x1="65.4" y1="30.4" x2="65.4" y2="69.7"/>
<line fill="none" stroke="#70bce2" stroke-miterlimit="10" x1="68.5" y1="30.4" x2="68.5" y2="69.6"/>
</svg>
