<?xml version="1.0" encoding="utf-8"?>
<!-- Generator: Adobe Illustrator 18.0.0, SVG Export Plug-In . SVG Version: 6.00 Build 0)  -->
<!DOCTYPE svg PUBLIC "-//W3C//DTD SVG 1.1//EN" "http://www.w3.org/Graphics/SVG/1.1/DTD/svg11.dtd">
<svg version="1.1" id="Layer_1" xmlns="http://www.w3.org/2000/svg" xmlns:xlink="http://www.w3.org/1999/xlink" x="0px" y="0px"
	 viewBox="0 0 127.4 87.8" enable-background="new 0 0 127.4 87.8" xml:space="preserve">
<path fill="none" stroke="#70bce2" stroke-miterlimit="10" d="M10.8,0.8h111.8c0,0,4.2,0.8,4.2,3.2s0,67.5,0,67.5s-1.5,2.8-4.5,2.5
	S5.8,74,5.8,74s-5,0-5-4.3s0-66.2,0-66.2S0.8-0.5,10.8,0.8z"/>
<path fill="none" stroke="#70bce2" stroke-miterlimit="10" d="M8.5,5H119c0,0,3,0,3,3s0,56.5,0,58.2s-0.2,3.5-3,3.5
	s-110.5,0-110.5,0S5,69,5,65.8S5,7.5,5,7.5S5.5,5,8.5,5z"/>
<path fill="none" stroke="#70bce2" stroke-miterlimit="10" d="M63.8,22.2c0,0,15.2-1.5,15.2,13.5S63.8,52,63.8,52s-14.5,0-14.5-14.6
	S63.8,22.2,63.8,22.2z"/>
<path fill="none" stroke="#70bce2" stroke-miterlimit="10" d="M64.8,28.3c0.2,0.1,4,0,4,0l-4,7.2h3.7c0,0-6.6,10.3-6.8,10.3
	s-0.8,0.6-0.8,0.6v-5.7l1.7-0.1l1.9-2.8l-2.8-0.1L64.8,28.3z"/>
<polyline fill="none" stroke="#70bce2" stroke-miterlimit="10" points="76.4,74.3 76.4,81.6 81.8,87.2 46.8,87.2 51.1,82.1 
	51.2,74.3 "/>
</svg>
